<svg id="Layer_1" data-name="Layer 1" xmlns="http://www.w3.org/2000/svg" viewBox="0 0 179.28 179.3"><defs><style>.cls-1{fill:#2e70f4;}</style></defs><path class="cls-1" d="M166.25,50.12v-2c0-6.46-.06-13.13-.43-19.71-.42-7.35-4.27-12.28-11.14-14.25a21.18,21.18,0,0,0-5.65-.91H115.32V13H94.6c-10.49-.06-22.71.08-34.71,2.56-10.72,2.22-18.75,5.59-25.28,10.61C25.86,33,20,42.35,16.64,55,13,68.91,12.8,83,13.06,95c.31,13.63,1.77,23.87,4.74,33.19,3.67,11.53,9.76,20.09,18.65,26.17A61.7,61.7,0,0,0,61.34,164a165.63,165.63,0,0,0,28,2.33,177.86,177.86,0,0,0,27.07-2.1,65,65,0,0,0,22.9-7.66c11.22-6.41,18.66-16.44,22.71-30.65,2.85-10,4.14-20.73,4.2-35C166.31,77.07,166.31,63.33,166.25,50.12ZM39.8,59.38a149.18,149.18,0,0,0,0,34.83c1,8.49,3,19.41,10.32,28.63,5.91,7.48,14.18,12.35,25.29,14.88,9.69,2.22,20.25,3,33.23,2.55a99.78,99.78,0,0,0,24.54-3.49,42.56,42.56,0,0,0,18.66-10.5c-4.06,11.66-11.22,19.64-21.75,24.19-6.83,2.95-14.69,4.72-24.74,5.56a184.91,184.91,0,0,1-31.57,0c-9.81-.85-21.17-2.59-31-9-7.65-4.94-12.9-12.25-16.06-22.35-2.33-7.62-3.65-16.16-4-26.82a171.76,171.76,0,0,1,1-29.47c1.3-9.33,3.6-19.94,10.67-28.66a39.26,39.26,0,0,1,18.71-12.5C43.76,36.68,41.13,48.63,39.8,59.38ZM131,128.71c-11.24,3.22-22.69,3.5-33.4,3.23A97.87,97.87,0,0,1,76,129.21c-14-3.5-22.47-12-26-26.22-3-12.25-2.91-24.6-2.33-36.15.44-9.27,1.91-16.62,4.66-23.13,3.63-8.71,9.9-14.65,19.11-18C67,30.34,64.08,36.34,62.51,43.8a105.89,105.89,0,0,0,.34,45.86C66.35,104.72,76.14,113.91,92,117c17.14,3.28,32.65,2.89,47.34-1.17a34.19,34.19,0,0,0,14-7.57C149.39,118.81,142.06,125.55,131,128.71Zm16-25.08c-4.29,3.41-9.6,5.5-16.68,6.57a107.34,107.34,0,0,1-36.64-.46c-13.38-2.59-21.43-10.5-24-23.4a99.27,99.27,0,0,1,.46-42.58C72.51,34.22,78,27.68,86.63,24.3c-3.92,4.48-6.38,10.23-7.5,17.49a92.66,92.66,0,0,0,.7,34.14c2.76,12.82,10.73,20.64,23.67,23.41a85,85,0,0,0,39.43-.6,29.46,29.46,0,0,0,11.75-5.9A23.87,23.87,0,0,1,147,103.63ZM123.91,42.1c1,8.16,6.72,13.18,15.6,13.61a102.92,102.92,0,0,0,11.78-.31l1.05-.07h.4l.08.25a15.89,15.89,0,0,1,.45,1.93,9.19,9.19,0,0,1-1.71.46c-2.54.51-5.14.85-7.88,1.17l-3.58.47-3.21-.49a68.16,68.16,0,0,1-8-1.48,10,10,0,0,1-7.18-7.07,40.3,40.3,0,0,1,0-24.06A2.11,2.11,0,0,1,122,26a14.79,14.79,0,0,1,1.85.6v.35c0,1.52,0,3-.11,4.55A65.93,65.93,0,0,0,123.91,42.1ZM150.37,51h-3.5a71.24,71.24,0,0,1-9.9-.43c-4.47-.62-7.28-3.43-8.32-8.35a40.25,40.25,0,0,1-.17-14.06c8,1.66,20.08,13.78,22.66,22.75a2.6,2.6,0,0,1-.78.09ZM116.44,26.18a52.1,52.1,0,0,0-1.17,6.3,48.78,48.78,0,0,0,.75,17c2,8.4,7.24,13.07,16,14.29s15.93.78,22.52-1.36a12.34,12.34,0,0,1,.29,1.59,1.58,1.58,0,0,1-.35.53,16.9,16.9,0,0,1-8.85,3.69A60.44,60.44,0,0,1,125,68.05c-7.74-1.42-12.17-5.83-13.54-13.37A53.73,53.73,0,0,1,112,30.39a17.09,17.09,0,0,1,1.84-4.09c.82-1.37,1.17-2,1.83-2a3.15,3.15,0,0,1,1.17.33Zm-11.18,9.17a62.75,62.75,0,0,0,.95,21.86c2.07,8.52,7.59,14,16,15.78,11,2.33,20.73,2,29.87-1a22.41,22.41,0,0,0,3.58-1.67,2.86,2.86,0,0,1-.7,2.24,19.22,19.22,0,0,1-9.83,6.12c-6.29,1.8-13.21,2.25-22.41,1.49a47.84,47.84,0,0,1-10.06-1.87,16.9,16.9,0,0,1-12.21-13.13A65.62,65.62,0,0,1,100.59,34a17.85,17.85,0,0,1,6-9.62,3.32,3.32,0,0,1,2.18-.88H109A29.91,29.91,0,0,0,105.26,35.35Zm-8-9.25a35.33,35.33,0,0,0-4.25,14.38,76.88,76.88,0,0,0,1.11,24.86c2.42,10.88,9.48,17.74,20.4,19.82a72.06,72.06,0,0,0,32.14-.65,27.87,27.87,0,0,0,6.35-2.59A26.66,26.66,0,0,0,156,80,20.67,20.67,0,0,1,143.5,91.61a50.35,50.35,0,0,1-14.6,2.68c-9.51.52-16.73.13-23.37-1.28-10.66-2.34-17.06-8.56-19.06-18.66-2.75-14-2.47-26.24.86-37.53a20.11,20.11,0,0,1,12-13.53,30.16,30.16,0,0,0-2,2.81Z"/></svg>