<svg id="Layer_1" data-name="Layer 1" xmlns="http://www.w3.org/2000/svg" viewBox="0 0 659.64 179.3"><defs><style>.cls-1{fill:#2e70f4;}</style></defs><path class="cls-1" d="M255.31,55.73V54c0-5.54-.05-11.26-.37-16.9-.36-6.3-3.66-10.53-9.55-12.22a17.94,17.94,0,0,0-4.85-.78c-7.64,0-15.4,0-22.91,0h-6V23.9H205.2c-3.78,0-7.56,0-11.34,0-9-.05-19.48.07-29.77,2.2-9.19,1.9-16.08,4.79-21.68,9.1C134.9,41,129.87,49.06,127,59.94c-3.11,11.9-3.3,24-3.07,34.29.26,11.69,1.51,20.47,4.06,28.46,3.15,9.89,8.37,17.23,16,22.45a52.81,52.81,0,0,0,21.34,8.23,141,141,0,0,0,24.05,2,152.81,152.81,0,0,0,23.22-1.8A55.92,55.92,0,0,0,232.24,147c9.62-5.5,16-14.1,19.48-26.29,2.44-8.53,3.55-17.78,3.6-30C255.36,78.84,255.36,67.06,255.31,55.73ZM146.86,63.67a128.08,128.08,0,0,0,0,29.87c.84,7.28,2.61,16.65,8.85,24.56,5.07,6.41,12.16,10.59,21.69,12.76,8.31,1.9,17.37,2.59,28.5,2.19a85.61,85.61,0,0,0,21.05-3,36.5,36.5,0,0,0,16-9c-3.48,10-9.62,16.84-18.65,20.74-5.86,2.53-12.6,4.05-21.22,4.77a159,159,0,0,1-27.08,0c-8.41-.73-18.15-2.22-26.58-7.68-6.56-4.24-11.06-10.51-13.77-19.17-2-6.54-3.13-13.86-3.43-23a147.38,147.38,0,0,1,.89-25.28c1.12-8,3.09-17.1,9.15-24.58a33.7,33.7,0,0,1,16.05-10.72C150.26,44.2,148,54.45,146.86,63.67Zm78.19,59.46c-9.64,2.76-19.46,3-28.64,2.77a83.72,83.72,0,0,1-18.55-2.34c-12-3-19.27-10.33-22.26-22.49-2.58-10.5-2.5-21.1-2-31,.38-7.95,1.64-14.26,4-19.84,3.11-7.47,8.49-12.56,16.39-15.47-3.8,4-6.31,9.15-7.65,15.55a90.69,90.69,0,0,0,.29,39.33c3,12.92,11.4,20.8,25,23.41,14.7,2.82,28,2.48,40.6-1a29.28,29.28,0,0,0,12-6.49C240.85,114.64,234.56,120.42,225.05,123.13Zm13.73-21.51c-3.68,2.93-8.23,4.72-14.3,5.64a92.07,92.07,0,0,1-31.43-.4c-11.47-2.22-18.38-9-20.54-20.07a85.23,85.23,0,0,1,.4-36.52c2-8.18,6.72-13.79,14.11-16.69-3.36,3.85-5.47,8.78-6.43,15a79.52,79.52,0,0,0,.6,29.28c2.37,11,9.2,17.71,20.3,20.08a73,73,0,0,0,33.82-.51,25.38,25.38,0,0,0,10.08-5.06A20.45,20.45,0,0,1,238.78,101.62ZM219,48.85c.88,7,5.76,11.3,13.38,11.67a89.22,89.22,0,0,0,10.1-.26l.9-.06a1.85,1.85,0,0,1,.34,0l.07.21a12.83,12.83,0,0,1,.39,1.66,7.68,7.68,0,0,1-1.47.39c-2.18.44-4.41.73-6.76,1l-3.07.41c-.9-.15-1.82-.28-2.75-.42a60.27,60.27,0,0,1-6.88-1.27,8.56,8.56,0,0,1-6.16-6.07,34.56,34.56,0,0,1,0-20.63,2.13,2.13,0,0,1,.23-.45,13.88,13.88,0,0,1,1.58.52c0,.11,0,.21,0,.3,0,1.3,0,2.6-.09,3.9A56,56,0,0,0,219,48.85Zm22.69,7.61h-3a61.51,61.51,0,0,1-8.49-.37c-3.84-.53-6.25-2.94-7.14-7.16a34.5,34.5,0,0,1-.14-12.06c6.86,1.42,17.22,11.82,19.43,19.51A2.23,2.23,0,0,1,241.68,56.46ZM212.59,35.2a45.2,45.2,0,0,0-1,5.4,41.82,41.82,0,0,0,.64,14.54c1.73,7.2,6.21,11.21,13.68,12.25s13.66.67,19.31-1.16a8.68,8.68,0,0,1,.25,1.36,1.25,1.25,0,0,1-.3.45,14.44,14.44,0,0,1-7.59,3.17,52.1,52.1,0,0,1-17.67-.1c-6.64-1.22-10.44-5-11.62-11.47a46.13,46.13,0,0,1,.51-20.83,14.58,14.58,0,0,1,1.58-3.51c.7-1.18,1-1.68,1.57-1.68a2.7,2.7,0,0,1,1,.28ZM203,43.06a53.78,53.78,0,0,0,.82,18.75c1.77,7.31,6.51,12,13.71,13.53,9.4,2,17.78,1.74,25.62-.84a19.51,19.51,0,0,0,3.07-1.43,2.47,2.47,0,0,1-.6,1.92,16.5,16.5,0,0,1-8.43,5.25c-5.4,1.54-11.33,1.93-19.22,1.28a41.11,41.11,0,0,1-8.63-1.61,14.49,14.49,0,0,1-10.47-11.26A56.2,56.2,0,0,1,199,41.91a15.36,15.36,0,0,1,5.13-8.25,2.81,2.81,0,0,1,1.87-.75h.2A25.67,25.67,0,0,0,203,43.06Zm-6.82-7.93a30.28,30.28,0,0,0-3.64,12.33,65.82,65.82,0,0,0,.95,21.32c2.08,9.33,8.13,15.22,17.5,17a61.75,61.75,0,0,0,27.56-.56A23.84,23.84,0,0,0,244,83a23.49,23.49,0,0,0,2.48-1.63,17.76,17.76,0,0,1-10.68,9.94,43.21,43.21,0,0,1-12.52,2.3c-8.16.45-14.35.11-20.05-1.1-9.14-2-14.63-7.34-16.34-16-2.36-12-2.12-22.51.73-32.19a17.24,17.24,0,0,1,10.26-11.6A27.3,27.3,0,0,0,196.19,35.13Z"/><path class="cls-1" d="M363.49,155.22c-13.13,0-25.26.1-37.39-.17-1.15,0-2.84-2.26-3.28-3.77-3.57-12.19-6.9-24.46-10.31-36.71a13.2,13.2,0,0,0-1-3.49,13.88,13.88,0,0,0-2.68-2.55c-.63,1-1.75,2-1.8,3.11-.21,4.35-.1,8.71-.1,13.06,0,8.71.13,17.42-.14,26.12-.05,1.5-1.8,4.18-2.83,4.21-10.76.31-21.52.19-32.77.19-.15-2.12-.37-3.79-.37-5.45,0-39.88.06-79.77-.12-119.65,0-4.74,1.23-6.34,6.13-6.2,17.21.49,34.49-.08,51.66,1C347.52,26.1,358.12,37,360.17,56.16c1.65,15.51.53,30.35-12.06,42-1.11,1-1,4.21-.44,6.08,4.27,14.16,8.81,28.25,13.25,42.37C361.7,149.05,362.4,151.53,363.49,155.22Zm-56.26-70.5c9.29,1.83,12.85-.53,13.83-9.31a38.24,38.24,0,0,0-.13-9.32c-1.09-8.06-5.64-10.72-13.7-8.22Z"/><path class="cls-1" d="M554.55,155.22c-11.37,0-22.13.12-32.88-.16-1.17,0-2.87-2.2-3.28-3.67a90.91,90.91,0,0,1-2.61-12.77c-.42-3.15-1.94-4-4.87-3.94-5.39.16-10.8.19-16.19,0-2.92-.11-4,1.21-4.45,3.84-.74,4.46-1.47,8.94-2.6,13.31-.34,1.31-2,3.22-3.07,3.25-10.22.25-20.46.14-31.52.14.71-4.63,1.22-8.69,2-12.7,6.82-37.32,13.79-74.61,20.42-112,.92-5.17,2.84-6.78,8.06-6.65,14.27.37,28.56.2,42.84.07,3.11,0,4.81.82,5.4,4.08Q543,90.2,554.4,152.34C554.52,153,554.47,153.67,554.55,155.22ZM504,66l-1.36,0c-2.23,14.24-4.46,28.48-6.71,42.89h14.8C508.47,94.24,506.26,80.1,504,66Z"/><path class="cls-1" d="M26.49,155.25V149c0-39.51.08-79-.11-118.53,0-4.89,1.15-6.68,6.31-6.51,14.43.45,29-.69,43.29.77,26.74,2.71,36.23,12.94,38,39.82a79.62,79.62,0,0,1-2.4,23.73c-3.72,15.19-16.21,23.71-33.72,24.3-2.61.09-5.22.06-7.84.07-7.43,0-7.43,0-7.44,7.72,0,9.92-.19,19.85.09,29.76.12,4.25-1.4,5.35-5.42,5.25C47.18,155.09,37.13,155.25,26.49,155.25Zm36.1-99.6c0,9.84-.05,19.38.09,28.92a3.4,3.4,0,0,0,2,2.42c5.44,1.7,10.94-1.49,11.68-7.16a65.74,65.74,0,0,0,.36-14C75.91,56.34,72.87,54.18,62.59,55.65Z"/><path class="cls-1" d="M390,106c0-14.8-.09-29.59.06-44.39,0-3.59-1.05-5-4.74-4.83-5.74.24-11.49,0-17.24.08-2.76,0-4.18-.7-3.91-3.9.69-8,1.2-16,1.58-23.95.17-3.66,1.51-5.09,5.39-5.07q38.39.22,76.77,0c4.19,0,5.41,1.21,4.94,5.45-.79,7.08-1,14.22-1.28,21.34-.17,4.32-1.51,7-6.5,6.14a24.16,24.16,0,0,0-4.17,0c-14.25,0-14.25,0-14.25,14.51,0,25.76-.14,51.53.12,77.29.05,5.19-1.16,7.08-6.63,6.74a204.53,204.53,0,0,0-23.49,0c-5.11.27-7-1-6.79-6.54C390.28,134.56,390,120.28,390,106Z"/><path class="cls-1" d="M634.26,125.36c-.68,9.72-1.15,18.55-2.12,27.33-.11,1-3,2.43-4.6,2.45-16.37.18-32.73.11-49.09.12-13.33,0-13.33,0-13.32-13.33,0-37.25.07-74.5-.1-111.75,0-4.65,1.06-6.51,6.06-6.27,8.33.4,16.71.34,25.06,0,4.66-.19,5.92,1.46,5.9,6-.18,29.24-.11,58.49-.08,87.74,0,8.56-.92,7.64,8,7.69C617.73,125.39,625.53,125.36,634.26,125.36Z"/><path class="cls-1" d="M362.49,155.22c-13.13,0-25.26.1-37.39-.17-1.15,0-2.84-2.26-3.28-3.77-3.57-12.19-6.9-24.46-10.31-36.71a13.2,13.2,0,0,0-1-3.49,13.88,13.88,0,0,0-2.68-2.55c-.63,1-1.75,2-1.8,3.11-.21,4.35-.1,8.71-.1,13.06,0,8.71.13,17.42-.14,26.12-.05,1.5-1.8,4.18-2.83,4.21-10.76.31-21.52.19-32.77.19-.15-2.12-.37-3.79-.37-5.45,0-39.88.06-79.77-.12-119.65,0-4.74,1.23-6.34,6.13-6.2,17.21.49,34.49-.08,51.66,1C346.52,26.1,357.12,37,359.17,56.16c1.65,15.51.53,30.35-12.06,42-1.11,1-1,4.21-.44,6.08,4.27,14.16,8.81,28.25,13.25,42.37C360.7,149.05,361.4,151.53,362.49,155.22Zm-56.26-70.5c9.29,1.83,12.85-.53,13.83-9.31a38.24,38.24,0,0,0-.13-9.32c-1.09-8.06-5.64-10.72-13.7-8.22Z"/><path class="cls-1" d="M553.55,155.22c-11.37,0-22.13.12-32.88-.16-1.17,0-2.87-2.2-3.28-3.67a90.91,90.91,0,0,1-2.61-12.77c-.42-3.15-1.94-4-4.87-3.94-5.39.16-10.8.19-16.19,0-2.92-.11-4,1.21-4.45,3.84-.74,4.46-1.47,8.94-2.6,13.31-.34,1.31-2,3.22-3.07,3.25-10.22.25-20.46.14-31.52.14.71-4.63,1.22-8.69,2-12.7,6.82-37.32,13.79-74.61,20.42-112,.92-5.17,2.84-6.78,8.06-6.65,14.27.37,28.56.2,42.84.07,3.11,0,4.81.82,5.4,4.08Q542,90.2,553.4,152.34C553.52,153,553.47,153.67,553.55,155.22ZM503,66l-1.36,0c-2.23,14.24-4.46,28.48-6.71,42.89h14.8C507.47,94.24,505.26,80.1,503,66Z"/><path class="cls-1" d="M25.49,155.25V149c0-39.51.08-79-.11-118.53,0-4.89,1.15-6.68,6.31-6.51,14.43.45,29-.69,43.29.77,26.74,2.71,36.23,12.94,38,39.82a79.62,79.62,0,0,1-2.4,23.73c-3.72,15.19-16.21,23.71-33.72,24.3-2.61.09-5.22.06-7.84.07-7.43,0-7.43,0-7.44,7.72,0,9.92-.19,19.85.09,29.76.12,4.25-1.4,5.35-5.42,5.25C46.18,155.09,36.13,155.25,25.49,155.25Zm36.1-99.6c0,9.84-.05,19.38.09,28.92a3.4,3.4,0,0,0,2,2.42c5.44,1.7,10.94-1.49,11.68-7.16a65.74,65.74,0,0,0,.36-14C74.91,56.34,71.87,54.18,61.59,55.65Z"/><path class="cls-1" d="M389,106c0-14.8-.09-29.59.06-44.39,0-3.59-1.05-5-4.74-4.83-5.74.24-11.49,0-17.24.08-2.76,0-4.18-.7-3.91-3.9.69-8,1.2-16,1.58-23.95.17-3.66,1.51-5.09,5.39-5.07q38.39.22,76.77,0c4.19,0,5.41,1.21,4.94,5.45-.79,7.08-1,14.22-1.28,21.34-.17,4.32-1.51,7-6.5,6.14a24.16,24.16,0,0,0-4.17,0c-14.25,0-14.25,0-14.25,14.51,0,25.76-.14,51.53.12,77.29.05,5.19-1.16,7.08-6.63,6.74a204.53,204.53,0,0,0-23.49,0c-5.11.27-7-1-6.79-6.54C389.28,134.56,389,120.28,389,106Z"/><path class="cls-1" d="M633.26,125.36c-.68,9.72-1.15,18.55-2.12,27.33-.11,1-3,2.43-4.6,2.45-16.37.18-32.73.11-49.09.12-13.33,0-13.33,0-13.32-13.33,0-37.25.07-74.5-.1-111.75,0-4.65,1.06-6.51,6.06-6.27,8.33.4,16.71.34,25.06,0,4.66-.19,5.92,1.46,5.9,6-.18,29.24-.11,58.49-.08,87.74,0,8.56-.92,7.64,8,7.69C616.73,125.39,624.53,125.36,633.26,125.36Z"/></svg>